<?xml version="1.0" encoding="utf-8"?>
<!-- Generator: Adobe Illustrator 16.0.0, SVG Export Plug-In . SVG Version: 6.00 Build 0)  -->
<!DOCTYPE svg PUBLIC "-//W3C//DTD SVG 1.1//EN" "http://www.w3.org/Graphics/SVG/1.1/DTD/svg11.dtd">
<svg version="1.1" id="Layer_1" xmlns="http://www.w3.org/2000/svg" xmlns:xlink="http://www.w3.org/1999/xlink" x="0px" y="0px"
	 width="334px" height="128px" viewBox="0 0 334 128" enable-background="new 0 0 334 128" xml:space="preserve">
<path fill="#B3B3B3" d="M46.478,71.275c0,3.139-1.197,6.053-3.587,8.369c-3.364,3.213-5.531,2.988-12.181,3.062
	c-7.1,0-8.147,0.226-8.744-1.271l-0.075-11.06V59.392h7.323c4.484,0,7.623,0,8.072,0.075C43.488,60.139,46.478,66.492,46.478,71.275
	 M36.463,36.523c3.663,0.598,7.623,3.812,8.072,9.417c0.448,5.605-3.736,10.761-9.491,11.583c-0.673,0.15-1.794,0.15-6.95,0.15
	h-6.203v-9.939l0.075-10.014c0.148-0.373,0.223-1.047,1.719-1.197C24.432,36.45,35.716,36.45,36.463,36.523z M15.613,38.617V80.54
	c-0.597,1.794-0.97,2.167-6.352,2.167H7.916V85.1h0.747c0.373-0.076,2.841-0.076,5.456-0.149c8.519-0.148,6.725,0.149,19.655,0.149
	c2.616,0,4.783,0,5.305-0.076c7.473-0.597,13.378-5.154,14.723-11.434c0.075-0.597,0.148-1.345,0.148-2.092
	c0-8.07-8.967-13.003-14.123-13.003c-0.448,0-0.225-0.15,0.597-0.298c7.847-1.793,11.509-7.175,11.509-11.509
	c0-1.42-0.297-2.839-0.972-4.259c-2.092-4.334-6.8-7.323-12.778-8.22c-0.822-0.075-1.57-0.075-7.025-0.075
	c-16.891,0-20.552,0.223-22.495-0.075H7.916v2.392h1.345C13.67,36.451,14.866,36.376,15.613,38.617L15.613,38.617z"/>
<path fill="#B3B3B3" d="M64.902,50.873v30.116c-0.598,1.271-0.672,1.645-4.409,1.719h-1.645V85.1h0.598
	c0.97-0.223,15.619-0.223,16.591,0h0.597v-2.392H74.99c-2.914-0.073-3.811-0.073-4.334-1.719V50.873
	c0.523-1.122,0.448-1.57,4.334-1.645h1.644v-2.391h-0.597c-0.972,0.223-15.62,0.223-16.591,0h-0.598v2.391h1.645
	C64.304,49.303,64.156,49.676,64.902,50.873"/>
<path fill="#B3B3B3" d="M106.445,74.637c0,3.287-1.942,7.323-6.427,7.997c-0.373,0.073-1.644,0.073-3.139,0.073
	c-5.68,0-5.978,0-6.502-0.895c-0.075-0.302-0.15-0.748-0.15-8.072v-7.697h5.008c3.288,0,5.23,0,5.53,0.075
	C103.456,66.491,106.445,69.555,106.445,74.637 M93.144,48.481h3.288c3.363,0.075,4.259-0.075,5.83,1.495
	c1.494,1.494,2.391,3.661,2.391,6.128c0,4.856-3.362,7.547-6.203,8.07c-0.672,0.15-1.045,0.15-4.483,0.15H90.23v-6.95
	c0-6.577,0.075-6.95,0.15-7.25c0.523-0.897,1.12-0.747,1.944-0.897h0.822V48.48L93.144,48.481z M110.481,56.253
	c0-3.961-3.512-8.594-10.014-9.341c-1.122-0.075-7.473-0.075-10.537,0.073c-2.391,0.075-9.716,0-10.164-0.148h-0.597v2.391h1.644
	c3.064,0.15,3.663,0.373,4.036,1.345c0.075,0.373,0.148,1.27,0.148,15.395c0,14.123-0.073,15.021-0.148,15.396
	c-0.447,1.045-1.197,1.194-4.036,1.344h-1.644V85.1h0.597c0.3-0.074,2.242-0.074,4.261-0.148C91.2,84.803,88.81,85.1,96.955,85.1
	c5.306,0,5.83,0,7.323-0.371c5.68-1.57,8.295-6.129,8.295-9.939c0-1.27-0.298-2.542-0.897-3.812
	c-2.616-5.381-8.145-5.604-9.267-5.979C103.754,64.996,110.481,62.23,110.481,56.253L110.481,56.253z"/>
<path fill="#B3B3B3" d="M147.678,48.112c2.527,6.943,1.858,18.865-5.787,21.646c-5.05,1.837-9.928-1.312-12.225-7.625
	c-0.766-2.105-1.162-4.503-1.278-7.003c-0.103-5.523,1.413-11.397,5.877-13.973c0.281-0.102,0.606-0.3,0.677-0.325
	c2.417-1.438,9.497-1.63,12.738,7.28 M123.228,60.822c0.664,1.823,1.041,2.639,2.05,4.098c4.861,6.811,12.978,8.387,19.222,6.114
	c2.034-0.741,3.959-1.997,5.688-3.58c2.303-2.188,7.345-8.63,3.977-17.889c-0.664-1.825-1.041-2.639-2.047-4.1
	c-4.861-6.809-12.98-8.384-19.153-6.138c-0.561,0.203-1.167,0.503-1.773,0.802c-6.358,3.267-11.383,11.292-7.962,20.692
	L123.228,60.822z M130.1,37.352l2.422-7.317c1.402-4.005,2.511-7.506,2.505-7.742c0.058-0.497,0.002-0.873-0.152-1.294
	c-0.205-0.561-1.506-2.392-3.822-1.55c-1.403,0.511-1.677,1.723-1.664,2.195c-0.064,0.261-0.431,15.408-0.406,15.477L130.1,37.352z"
	/>
<path fill="#B3B3B3" d="M149.991,18.945c1.263-0.459,2.628-1.513,4.905-1.148c5.383,0.822,9.6,7.389,10.173,7.656
	c0.077,0.211,0.109,1.392,0.039,5.786c-0.081,9.164-0.603,17.773-1.666,27.295c-0.223,2.225-0.433,4.05-0.408,4.12
	c0,0,0.122,0.114,0.172,0.255c0.339,0.273,0.409,0.248,2.934-0.67c2.034-0.741,2.383-0.867,2.473-1.059
	c0.115-0.123,0.58-3.864,0.91-7.32c1.152-12.336,0.869-18.348,1.035-20.953c0,0,0.07-0.025,0.123,0.116
	c6.43,8.066,16.434,22.458,21.271,20.697c0.913-0.332,2.391-1.505,1.6-3.68c-0.74-2.034-2.602-1.913-2.883-1.811
	c-0.209,0.077-1.18,0.031-1.607-0.05c-2.806-0.727-6.429-3.698-11.015-9.1c-5.685-6.669-10.289-13.652-14.028-18.25
	c-4.152-5.081-9.581-10.177-15.619-7.344c-2.519,1.155-2.194,2.705-1.836,3.686c0.766,2.105,2.442,2.13,3.423,1.773"/>
<path fill="#B3B3B3" d="M200.672,19.825c2.945-1.072,5.803-0.206,9.229,3.314c0.978,1.155,3.91,4.853,4.09,5.344
	c0.025,0.07-0.031,0.567-0.062,1.134c-0.47,10.498-3.539,12.33-5.316,12.897c-5.645,1.736-10.133-1.873-12.455-8.256
	C192.887,25.278,197.234,21.075,200.672,19.825 M230.381,33.798c-0.256-0.702-0.587-0.739-1.219-0.509
	c-0.491,0.178-0.887,0.402-0.682,0.962c0.279,0.772-0.955,1.302-1.729,1.583c-1.191,0.433-3.322,1.128-7.048-2.997l-0.658-0.716
	l0.097-0.827c0.28-2.725,0.453-6.839,0.311-11.156c-0.092-3.302-0.48-10.706-0.614-11.292c-0.103-0.281-0.103-0.281-0.675-0.548
	l-2.245,0.816c-2.244,0.817-2.244,0.817-2.334,1.008c-0.387,0.459,0.947,14.827,0.455,15.006l-1.181-1.716
	c-3.285-4.444-8.094-10.241-13.846-8.147c-0.352,0.128-0.771,0.281-1.098,0.478c-4.578,2.698-6.872,10.364-3.656,19.203
	c1.022,2.806,2.463,5.458,4.312,7.486c1.852,2.028,6.552,6.434,12.162,4.392c5.893-2.144,7.313-8.938,7.772-11.168l0.12-0.759
	l0.777,0.83c1.246,1.453,5.035,6.192,8.822,4.814C231.664,39.289,230.814,34.991,230.381,33.798L230.381,33.798L230.381,33.798z"/>
<path fill="#B3B3B3" d="M215.816,87.848c-0.078-0.211-0.153-0.422-0.248-0.467c-0.271-0.298-2.062-0.203-1.653,0.919
	c0.205,0.562-1.063,1.658-2.664,1.845c-0.989,0.121-4.294-0.664-4.536-4.387c-0.244-3.725-1.162-8.872-5.016-19.464
	c-0.658-1.588-0.709-1.728-0.979-2.028c-0.318-0.438-1.428-1.306-3.041-0.719c-0.562,0.203-1.888,0.923-1.867,2.505
	c-0.015,0.403,0.037,0.544,1.369,4.427c4.793,13.825,6.682,23.386,0.299,25.707c-4.908,1.787-8.763-1.813-9.885-3.154
	c-2.193-2.536-3.886-5.655-4.869-8.795c-1.166-3.863-0.766-6.473-1.754-9.846c-0.281-0.77-0.384-1.052-0.632-1.517
	c-0.938-1.485-2.208-2.136-3.427-1.772c-0.28,0.104-0.631,0.23-0.678,0.325c-1.805,1.372-0.986,3.616-0.246,5.65
	c0.791,2.175,2.238,5.937,5.252,10.719c0.714,1.093,0.261,0.063,1.779,5.548c3.312,13.252,5.027,18.189,7.715,22.295
	c0.662,0.948,4.095,5.578,6.9,4.56c1.613-0.589,2.359-2.685,1.543-4.058c-1.476-2.084-8.095-3.252-12.828-18.445
	c-0.49-1.57-1.226-4.242-1.205-4.408c1.242,1.455,3.922,4.449,7.463,6.104c3.348,1.562,5.707,0.623,6.617,0.291
	c5.402-1.965,6.614-6.06,7.061-7.89l0.211-0.952c2.199,3.648,5.104,4.42,7.138,3.682C217.075,93.27,216.225,88.971,215.816,87.848"
	/>
<path fill="#B3B3B3" d="M222.973,60.425c2.944-1.072,5.803-0.206,9.229,3.314c0.977,1.155,3.91,4.853,4.089,5.344
	c0.026,0.069-0.031,0.567-0.062,1.134c-0.471,10.498-3.539,12.33-5.316,12.897c-5.645,1.735-10.133-1.873-12.456-8.257
	C215.188,65.878,219.535,61.675,222.973,60.425 M252.682,74.398c-0.257-0.703-0.588-0.739-1.22-0.51
	c-0.491,0.178-0.886,0.401-0.681,0.963c0.279,0.771-0.956,1.301-1.729,1.582c-1.19,0.434-3.321,1.129-7.048-2.996l-0.658-0.718
	l0.098-0.825c0.279-2.727,0.453-6.84,0.31-11.158c-0.091-3.302-0.479-10.706-0.614-11.292c-0.102-0.281-0.102-0.281-0.675-0.548
	l-2.245,0.816c-2.244,0.817-2.244,0.817-2.334,1.008c-0.387,0.459,0.947,14.827,0.455,15.007l-1.18-1.718
	c-3.286-4.444-8.094-10.241-13.846-8.146c-0.353,0.128-0.771,0.281-1.099,0.478c-4.577,2.698-6.872,10.364-3.655,19.203
	c1.021,2.807,2.463,5.458,4.312,7.486c1.853,2.027,6.552,6.434,12.163,4.392c5.892-2.144,7.312-8.938,7.771-11.169l0.12-0.759
	l0.778,0.83c1.245,1.452,5.033,6.19,8.822,4.813c3.438-1.253,2.588-5.551,2.154-6.742l0,0V74.398z"/>
<path fill="#B3B3B3" d="M241.473,30.177c1.635,4.489,5.519,4.03,7.832,3.188c1.613-0.588,3.451-1.653,5.344-3.214l0.971-0.831
	l-0.982,2.105c-6.648,14.253-5.021,23.75-3.215,29.367c2.131,6.295,7.903,13.647,17.271,12.542
	c2.703-0.428,13.524-5.398,15.068-2.466c0.377,0.817,0.188,1.602-0.503,2.327c-2.43,2.712-7.723,3.447-8.756,4.537
	c-0.942,0.897-0.803,1.723-0.521,2.494c0.459,1.263,1.401,2.108,3.508,1.344c0.35-0.127,0.771-0.28,1.167-0.504
	c5.897-2.781,8.392-6.627,6.911-10.695c-2.299-6.313-10.95-4.992-16.07-3.128c-3.578,1.302-6.936,1.252-10.064-0.152
	c-4.637-2.047-5.927-6.025-6.423-7.83c-2.022-7.525-0.137-15.441,6.239-25.863c6.604-10.664,8.091-10.728,7.133-12.922
	c-0.223-0.395-0.324-0.675-0.568-0.906c-0.897-0.942-2.392-1.114-3.392-0.591c-1.144,0.573-6.159,8.833-11.209,10.67
	c-2.386,0.869-3.312-0.145-3.94-1.664c-0.883-1.983-2.387-2.627-3.998-2.039c-1.266,0.459-2.719,1.703-1.799,4.228"/>
<path fill="#B3B3B3" d="M280.434,34.994c0.307,0.841,8.422,21.4,8.951,22.637c1.137,2.684,1.953,4.056,3.069,5.159
	c0.821,0.731,2.633,2.219,5.438,1.198c2.666-0.97,4.592-3.975,3.342-7.413c-0.709-2.602-3.328-3.475-4.254-3.614
	c-0.263-0.064-0.994-0.116-0.627,1.337c0.334,0.912,0.303,2.355-1.451,2.992c-1.475,0.536-2.893-0.298-3.402-1.702
	c-0.791-2.175-5.43-21.697-5.762-22.608c-0.051-0.141-0.242-0.23-0.623-0.408l-4.489,1.634c-0.134,0.286-0.295,0.503-0.192,0.784
	 M280.005,31.416l2.447-7.245c1.952-5.555,2.934-7.659,2.448-8.992c-0.203-0.561-1.148-2.284-3.803-1.716
	c-1.263,0.459-1.734,1.345-1.762,2.15c-0.037,0.331-0.48,15.267-0.404,15.478C278.984,31.23,279.221,31.224,280.005,31.416
	L280.005,31.416z"/>
<path fill="#B3B3B3" d="M317.652,81.064c0,3.213,3.214,4.035,3.961,4.035c0.82,0,4.036-0.673,4.036-4.035
	c0-3.141-3.064-3.961-3.888-3.961C320.791,77.104,317.652,77.925,317.652,81.064 M317.652,35.253c0,0.375,2.989,34.677,3.062,35.2
	c0,0.521,0.3,0.597,0.972,0.597c0.448,0,0.897,0,0.897-0.597c0.075-0.523,3.064-34.825,3.064-35.2c0-0.822-0.674-3.661-4.036-3.661
	C318.476,31.592,317.652,34.506,317.652,35.253z"/>
</svg>
