<?xml version="1.0" encoding="utf-8"?>
<!-- Generator: Adobe Illustrator 16.0.0, SVG Export Plug-In . SVG Version: 6.00 Build 0)  -->
<!DOCTYPE svg PUBLIC "-//W3C//DTD SVG 1.1//EN" "http://www.w3.org/Graphics/SVG/1.1/DTD/svg11.dtd">
<svg version="1.1" id="Layer_1" xmlns="http://www.w3.org/2000/svg" xmlns:xlink="http://www.w3.org/1999/xlink" x="0px" y="0px"
	 width="64px" height="64px" viewBox="0 0 64 64" enable-background="new 0 0 64 64" xml:space="preserve">
<g>
	<polygon fill="#666666" points="52,15.244 49.122,13 27.47,13 24.227,8 15.049,8 11.78,13 6.868,13 4,15.52 4,39.379 6.868,43 
		49.122,43 52,39.655 	"/>
	<polygon fill="#999999" points="62.011,19.315 59.832,17 17.577,17 13.676,19.548 5.033,40.139 6.868,43 49.122,43 53.168,40.373 	
		"/>
</g>
<g>
	<path fill="#666666" d="M16.541,55.091c0.221,0,0.431,0.042,0.63,0.127s0.371,0.202,0.518,0.352s0.262,0.324,0.347,0.522
		s0.127,0.412,0.127,0.64c0,0.222-0.042,0.43-0.127,0.625s-0.2,0.366-0.347,0.513s-0.319,0.262-0.518,0.347s-0.409,0.127-0.63,0.127
		c-0.228,0-0.439-0.042-0.635-0.127s-0.366-0.2-0.513-0.347s-0.262-0.317-0.347-0.513s-0.127-0.403-0.127-0.625
		c0-0.228,0.042-0.441,0.127-0.64s0.2-0.373,0.347-0.522s0.317-0.267,0.513-0.352S16.313,55.091,16.541,55.091z"/>
	<path fill="#666666" d="M32.059,53.089c0,0.872-0.122,1.634-0.366,2.285s-0.581,1.191-1.011,1.621s-0.938,0.752-1.523,0.967
		s-1.221,0.322-1.904,0.322c-0.312,0-0.624-0.017-0.933-0.049s-0.624-0.088-0.942-0.166v4.102H23.68V48.362h1.514l0.107,1.641
		c0.488-0.671,1.009-1.141,1.562-1.411s1.152-0.405,1.797-0.405c0.56,0,1.051,0.117,1.475,0.352s0.778,0.564,1.064,0.991
		s0.501,0.94,0.645,1.543S32.059,52.347,32.059,53.089z M30.32,53.167c0-0.515-0.038-0.986-0.112-1.416s-0.194-0.798-0.356-1.104
		s-0.371-0.545-0.625-0.718s-0.557-0.259-0.908-0.259c-0.215,0-0.433,0.034-0.654,0.103s-0.451,0.183-0.688,0.342
		s-0.488,0.371-0.752,0.635s-0.545,0.591-0.845,0.981v4.756c0.312,0.13,0.641,0.232,0.986,0.308s0.684,0.112,1.016,0.112
		c0.918,0,1.637-0.311,2.158-0.933S30.32,54.417,30.32,53.167z"/>
	<path fill="#666666" d="M43.396,48.362l-3.34,8.77c-0.346,0.892-0.701,1.66-1.07,2.305c-0.367,0.645-0.77,1.174-1.205,1.587
		s-0.914,0.718-1.436,0.913s-1.104,0.293-1.748,0.293c-0.17,0-0.322-0.003-0.459-0.01s-0.287-0.017-0.449-0.029v-1.543
		c0.143,0.02,0.299,0.037,0.469,0.054s0.348,0.024,0.537,0.024c0.312,0,0.604-0.046,0.874-0.137s0.526-0.239,0.767-0.444
		s0.473-0.471,0.693-0.796s0.436-0.72,0.645-1.182l-3.916-9.805h1.934l2.48,6.484l0.498,1.523l0.566-1.562l2.295-6.445H43.396z"/>
</g>
</svg>
