<?xml version="1.0" encoding="utf-8"?>
<!-- Generator: Adobe Illustrator 16.0.0, SVG Export Plug-In . SVG Version: 6.00 Build 0)  -->
<!DOCTYPE svg PUBLIC "-//W3C//DTD SVG 1.1//EN" "http://www.w3.org/Graphics/SVG/1.1/DTD/svg11.dtd">
<svg version="1.1" id="Layer_1" xmlns="http://www.w3.org/2000/svg" xmlns:xlink="http://www.w3.org/1999/xlink" x="0px" y="0px"
	 width="64px" height="64px" viewBox="0 0 64 64" enable-background="new 0 0 64 64" xml:space="preserve">
<g>
	<path fill="#808080" d="M51.939,34.84l5.391,3.17l-1.5,4.6l-6.21-0.6c-0.851,1.561-1.91,3.01-3.13,4.28l2.5,5.74l-3.91,2.84
		l-4.68-4.15c-1.58,0.761-3.28,1.32-5.051,1.65l-1.359,6.09h-4.82l-1.36-6.09c-1.77-0.33-3.47-0.89-5.05-1.65l-4.68,4.15l-3.9-2.84
		l2.49-5.74c-1.22-1.271-2.28-2.72-3.13-4.28l-6.21,0.6l-1.5-4.6l5.39-3.17c-0.12-0.869-0.18-1.75-0.18-2.65s0.06-1.79,0.18-2.66
		l-5.39-3.17l1.5-4.59l6.21,0.6c0.85-1.57,1.91-3.01,3.13-4.3l-2.5-5.73l3.91-2.84l4.68,4.14c1.58-0.76,3.27-1.31,5.04-1.63
		l1.36-6.11h4.83L35.35,12c1.771,0.32,3.471,0.88,5.051,1.64l4.68-4.14l3.9,2.84l-2.49,5.73c1.22,1.29,2.279,2.73,3.13,4.3l6.21-0.6
		l1.5,4.59l-5.391,3.17c0.121,0.87,0.181,1.76,0.181,2.66S52.061,33.971,51.939,34.84z"/>
</g>
</svg>
