<?xml version="1.0" encoding="utf-8"?>
<!-- Generator: Adobe Illustrator 16.0.0, SVG Export Plug-In . SVG Version: 6.00 Build 0)  -->
<!DOCTYPE svg PUBLIC "-//W3C//DTD SVG 1.1//EN" "http://www.w3.org/Graphics/SVG/1.1/DTD/svg11.dtd">
<svg version="1.1" id="Layer_1" xmlns="http://www.w3.org/2000/svg" xmlns:xlink="http://www.w3.org/1999/xlink" x="0px" y="0px"
	 width="64px" height="64px" viewBox="0 0 64 64" enable-background="new 0 0 64 64" xml:space="preserve">
<g>
	<circle fill="#4D4D4D" cx="32.186" cy="24.351" r="21.519"/>
	<path fill="#666666" d="M53.705,24.35c0,6.889-3.238,13.017-8.273,16.952l-0.161-0.098c-1.506-5.294,0.817-9.455-2.525-14.207
		c-6.784-9.649-6.38-11.577-1.279-21.874l0.299-0.041C48.84,8.597,53.705,15.907,53.705,24.35z"/>
	<path fill="#666666" d="M23.124,21.359c-3.701,2.314-6.689,9.383-10.832,11.174c-1.947-4.703-2.233-10.113-0.42-15.292
		c2.22-6.342,7.115-10.992,12.979-13.117c1.062,1.032,2.127,2.451,3.174,4.31c0.016,0.031,0.03,0.062,0.052,0.096
		c0.038,0.064,0.177,0.328,0.197,0.369c0.01,0.021,0.02,0.041,0.033,0.054C31.101,14.424,27.146,18.838,23.124,21.359z"/>
	<path fill="#666666" d="M30.699,39.545c-0.737,0.882-1.514,2.671-2.599,3.148c-0.737,0.316-1.886,0.138-2.68,0.073
		c-1.069-0.097-2.186-0.275-3.271-0.202c-0.445,0.032-0.842,0.121-1.247,0.113c-1.23-0.761-2.421-1.644-3.474-2.631
		C17.454,38.905,19,37.771,19,36.55v-0.13c1-1.546,0.073-3.529,0.826-4.945c0.575-1.086,1.996-2.389,3.251-2.559
		c1.352-0.187,1.783,0.995,2.625,1.772c1.425,1.319,3.583,1.668,4.878,3.093C32.134,35.48,32.091,37.861,30.699,39.545z"/>
</g>
<g>
	<path fill="#666666" d="M19.383,55.091c0.221,0,0.431,0.042,0.63,0.127s0.371,0.202,0.518,0.352s0.262,0.324,0.347,0.522
		s0.127,0.412,0.127,0.64c0,0.222-0.042,0.43-0.127,0.625s-0.2,0.366-0.347,0.513s-0.319,0.262-0.518,0.347s-0.409,0.127-0.63,0.127
		c-0.228,0-0.439-0.042-0.635-0.127s-0.366-0.2-0.513-0.347s-0.262-0.317-0.347-0.513s-0.127-0.403-0.127-0.625
		c0-0.228,0.042-0.441,0.127-0.64s0.2-0.373,0.347-0.522s0.317-0.267,0.513-0.352S19.155,55.091,19.383,55.091z"/>
	<path fill="#666666" d="M34.9,53.089c0,0.872-0.122,1.634-0.366,2.285s-0.581,1.191-1.011,1.621S32.586,57.747,32,57.962
		s-1.221,0.322-1.904,0.322c-0.312,0-0.624-0.017-0.933-0.049s-0.624-0.088-0.942-0.166v4.102h-1.699V48.362h1.514l0.107,1.641
		c0.488-0.671,1.009-1.141,1.562-1.411s1.152-0.405,1.797-0.405c0.56,0,1.051,0.117,1.475,0.352
		c0.424,0.234,0.777,0.564,1.064,0.991s0.502,0.94,0.645,1.543S34.9,52.347,34.9,53.089z M33.162,53.167
		c0-0.515-0.037-0.986-0.112-1.416c-0.075-0.43-0.194-0.798-0.356-1.104s-0.371-0.545-0.625-0.718s-0.557-0.259-0.908-0.259
		c-0.215,0-0.433,0.034-0.654,0.103s-0.451,0.183-0.688,0.342s-0.488,0.371-0.752,0.635s-0.545,0.591-0.845,0.981v4.756
		c0.312,0.13,0.641,0.232,0.986,0.308s0.684,0.112,1.016,0.112c0.918,0,1.637-0.311,2.158-0.933S33.162,54.417,33.162,53.167z"/>
	<path fill="#666666" d="M46.238,48.362l-3.34,8.77c-0.346,0.892-0.701,1.66-1.07,2.305c-0.367,0.645-0.77,1.174-1.205,1.587
		s-0.914,0.718-1.436,0.913s-1.104,0.293-1.748,0.293c-0.17,0-0.322-0.003-0.459-0.01s-0.287-0.017-0.449-0.029v-1.543
		c0.143,0.02,0.299,0.037,0.469,0.054s0.348,0.024,0.537,0.024c0.312,0,0.604-0.046,0.874-0.137s0.526-0.239,0.767-0.444
		s0.473-0.471,0.693-0.796s0.436-0.72,0.645-1.182L36.6,48.362h1.934l2.48,6.484l0.498,1.523l0.566-1.562l2.295-6.445H46.238z"/>
</g>
</svg>
